<?xml version="1.0" encoding="UTF-8" standalone="no"?>
<svg
   xmlns:dc="http://purl.org/dc/elements/1.1/"
   xmlns:cc="http://creativecommons.org/ns#"
   xmlns:rdf="http://www.w3.org/1999/02/22-rdf-syntax-ns#"
   xmlns:svg="http://www.w3.org/2000/svg"
   xmlns="http://www.w3.org/2000/svg"
    viewBox="0 0 1882.9301 391.20004"
   version="1.1"
   data-name="Layer 1"
   id="Layer_1">
  <metadata
     id="metadata3391">
    <rdf:RDF>
      <cc:Work
         rdf:about="">
        <dc:format>image/svg+xml</dc:format>
        <dc:type
           rdf:resource="http://purl.org/dc/dcmitype/StillImage" />
        <dc:title>Legemiddelverket_logo_rbg</dc:title>
      </cc:Work>
    </rdf:RDF>
  </metadata>
  <defs
     id="defs3337">
    <style
       id="style3339">.cls-1{fill:#007d91;}</style>
  </defs>
  <title
     id="title3341">Legemiddelverket_logo_rbg</title>
  <path
     id="path3343"
     d="m 598.3,110.68 q 0,17.66 -12.77,27.71 -12.77,10.05 -35.22,10.06 -22.46,0 -36.76,-7 l 0,-20.45 a 99.79,99.79 0 0 0 19.24,6.7 81.59,81.59 0 0 0 19,2.45 q 12.86,0 19,-4.89 a 15.94,15.94 0 0 0 6.11,-13.13 16.46,16.46 0 0 0 -5.61,-12.59 Q 565.67,94.38 548.11,87.31 530,79.98 522.57,70.56 q -7.43,-9.42 -7.43,-22.64 0,-16.57 11.77,-26.08 11.77,-9.51 31.6,-9.51 a 92.86,92.86 0 0 1 37.85,8.33 l -6.96,17.66 q -17.66,-7.42 -31.51,-7.43 -10.51,0 -15.94,4.57 a 15,15 0 0 0 -5.43,12.09 17,17 0 0 0 2.17,8.83 22.19,22.19 0 0 0 7.15,6.93 q 5,3.26 17.93,8.6 14.58,6.07 21.37,11.32 a 33.31,33.31 0 0 1 10,11.86 35.68,35.68 0 0 1 3.16,15.59 z" />
  <path
     id="path3345"
     d="m 658.97,131.23 a 51.76,51.76 0 0 0 15.58,-2.44 l 0,16 a 42.9,42.9 0 0 1 -9.1,2.58 62.78,62.78 0 0 1 -11.55,1 q -30.25,0 -30.25,-31.88 l 0,-54 -13.67,0 0,-9.42 14.67,-7.79 7.24,-21.19 13.13,0 0,22.36 28.52,0 0,16.12 -28.52,0 0,53.61 q 0,7.7 3.85,11.36 a 14,14 0 0 0 10.1,3.69 z" />
  <path
     id="path3347"
     d="m 757.22,146.63 -4.26,-13.95 -0.72,0 q -7.25,9.15 -14.58,12.45 -7.33,3.3 -18.83,3.32 -14.76,0 -23,-8 -8.24,-8 -8.29,-22.55 0,-15.48 11.5,-23.36 11.5,-7.88 35,-8.6 l 17.3,-0.54 0,-5.34 q 0,-9.6 -4.48,-14.35 -4.48,-4.75 -13.9,-4.75 a 48.07,48.07 0 0 0 -14.76,2.26 111.63,111.63 0 0 0 -13.58,5.34 l -6.88,-15.21 a 74.1,74.1 0 0 1 17.84,-6.47 82.12,82.12 0 0 1 18.29,-2.22 q 19.11,0 28.84,8.33 9.73,8.33 9.73,26.17 l 0,67.46 -15.21,0 z m -31.69,-14.49 q 11.59,0 18.61,-6.47 7.02,-6.47 7,-18.16 l 0,-8.69 -12.86,0.54 q -15,0.54 -21.87,5 -6.87,4.46 -6.84,13.72 0,6.7 4,10.37 4,3.67 11.96,3.69 z" />
  <path
     id="path3349"
     d="m 839.4,131.23 a 51.77,51.77 0 0 0 15.58,-2.44 l 0,16 a 42.92,42.92 0 0 1 -9.1,2.58 62.77,62.77 0 0 1 -11.54,1 q -30.25,0 -30.25,-31.88 l 0,-54 -13.67,0 0,-9.42 14.67,-7.79 7.24,-21.19 13.13,0 0,22.36 28.53,0 0,16.12 -28.49,0 0,53.61 q 0,7.7 3.85,11.36 a 14,14 0 0 0 10.05,3.69 z" />
  <path
     id="path3351"
     d="m 918.77,148.45 q -23.36,0 -36.54,-13.63 -13.18,-13.63 -13.18,-37.53 0,-24.54 12.22,-38.58 12.22,-14.04 33.6,-14 19.83,0 31.33,12 11.5,12 11.5,33.14 l 0,11.5 -66.74,0 q 0.45,14.58 7.88,22.41 7.43,7.83 20.92,7.83 a 77.2,77.2 0 0 0 16.53,-1.67 86.51,86.51 0 0 0 16.44,-5.57 l 0,17.3 a 65.26,65.26 0 0 1 -15.76,5.25 96.62,96.62 0 0 1 -18.2,1.55 z m -3.89,-87.66 q -10.14,0 -16.25,6.43 -6.11,6.43 -7.29,18.75 l 45.46,0 q -0.18,-12.41 -6,-18.79 -5.82,-6.38 -15.92,-6.4 z" />
  <path
     id="path3353"
     d="m 1070,146.63 -21.37,0 0,-61.58 q 0,-11.59 -4.66,-17.3 -4.66,-5.71 -14.81,-5.7 -13.49,0 -19.74,8 -6.25,8 -6.25,26.71 l 0,49.9 -21.28,0 0,-100.21 16.66,0 3,13.13 1.09,0 a 29.63,29.63 0 0 1 12.86,-11 43.11,43.11 0 0 1 18.47,-3.89 q 36,0 36,36.67 l 0,65.29 z" />
  <path
     id="path3355"
     d="m 1166.89,118.1 q 0,14.67 -10.69,22.5 -10.69,7.83 -30.6,7.85 -20,0 -32.15,-6.07 l 0,-18.39 q 17.66,8.15 32.87,8.15 19.65,0 19.65,-11.86 a 9.4,9.4 0 0 0 -2.17,-6.34 25.75,25.75 0 0 0 -7.15,-5.25 123.49,123.49 0 0 0 -13.86,-6.16 q -17.3,-6.7 -23.41,-13.4 -6.11,-6.7 -6.11,-17.39 0,-12.86 10.37,-20 10.37,-7.14 28.21,-7.11 a 79.92,79.92 0 0 1 33.42,7.15 l -6.88,16 q -16.21,-6.7 -27.26,-6.7 -16.84,0 -16.84,9.6 0,4.71 4.39,8 4.39,3.29 19.15,9 12.41,4.8 18,8.78 a 26.28,26.28 0 0 1 8.33,9.19 26.61,26.61 0 0 1 2.73,12.45 z" />
  <path
     id="path3357"
     d="m 540.98,346.63 -21.28,0 0,-140.91 21.28,0 0,140.9 z" />
  <path
     id="path3359"
     d="m 615.14,348.45 q -23.36,0 -36.54,-13.63 -13.18,-13.63 -13.2,-37.54 0,-24.54 12.23,-38.58 12.23,-14.04 33.6,-14 19.83,0 31.33,12 11.5,12 11.5,33.14 l 0,11.5 -66.74,0 q 0.45,14.58 7.88,22.41 7.43,7.83 20.92,7.83 a 77.21,77.21 0 0 0 16.53,-1.67 86.56,86.56 0 0 0 16.44,-5.57 l 0,17.3 a 65.27,65.27 0 0 1 -15.76,5.25 96.62,96.62 0 0 1 -18.19,1.56 z m -3.89,-87.66 q -10.14,0 -16.25,6.43 -6.11,6.43 -7.29,18.75 l 45.46,0 q -0.18,-12.41 -6,-18.79 -5.82,-6.38 -15.92,-6.4 z" />
  <path
     id="path3361"
     d="m 762.84,246.45 0,11.68 -17.11,3.17 a 27.67,27.67 0 0 1 3.89,7.79 30.74,30.74 0 0 1 1.54,9.78 q 0,15.48 -10.69,24.36 -10.69,8.88 -29.43,8.87 a 47.58,47.58 0 0 1 -8.69,-0.72 q -6.88,4.26 -6.88,10 a 5.53,5.53 0 0 0 3.21,5.16 q 3.21,1.72 11.82,1.72 l 17.48,0 q 16.57,0 25.17,7.06 8.6,7.06 8.6,20.38 0,17 -14,26.26 -14,9.26 -40.57,9.24 -20.47,0 -31.24,-7.24 -10.77,-7.24 -10.78,-20.65 A 22,22 0 0 1 671,347.78 q 5.84,-6.29 16.35,-8.74 a 16,16 0 0 1 -7,-5.84 14.73,14.73 0 0 1 -2.76,-8.47 14.57,14.57 0 0 1 3.17,-9.51 36.55,36.55 0 0 1 9.42,-7.7 27.88,27.88 0 0 1 -12.63,-10.91 32.09,32.09 0 0 1 -4.84,-17.7 q 0,-16.3 10.28,-25.26 10.28,-8.96 29.29,-9 a 71.29,71.29 0 0 1 8.92,0.59 56.57,56.57 0 0 1 7,1.22 l 34.68,0 z m -78.69,115.73 q 0,6.88 6.2,10.59 6.2,3.71 17.43,3.71 17.39,0 25.9,-5 8.51,-5 8.51,-13.22 0,-6.52 -4.66,-9.28 -4.66,-2.76 -17.34,-2.76 l -16.12,0 q -9.15,0 -14.53,4.3 a 14.1,14.1 0 0 0 -5.4,11.68 z m 9.15,-83.31 q 0,9.42 4.84,14.49 4.84,5.07 13.9,5.07 18.47,0 18.47,-19.74 0,-9.78 -4.57,-15.08 -4.57,-5.3 -13.9,-5.3 -9.24,0 -14,5.25 -4.76,5.25 -4.75,15.33 z" />
  <path
     id="path3363"
     d="m 825.14,348.45 q -23.36,0 -36.54,-13.63 -13.18,-13.63 -13.2,-37.54 0,-24.54 12.23,-38.58 12.23,-14.04 33.6,-14 19.83,0 31.33,12 11.5,12 11.5,33.14 l 0,11.5 -66.74,0 q 0.45,14.58 7.88,22.41 7.43,7.83 20.92,7.83 a 77.2,77.2 0 0 0 16.53,-1.67 86.51,86.51 0 0 0 16.44,-5.57 l 0,17.3 a 65.26,65.26 0 0 1 -15.76,5.25 96.62,96.62 0 0 1 -18.19,1.56 z m -3.89,-87.66 q -10.14,0 -16.25,6.43 -6.11,6.43 -7.29,18.75 l 45.46,0 q -0.18,-12.41 -6,-18.79 -5.82,-6.38 -15.93,-6.4 z" />
  <path
     id="path3365"
     d="m 972.65,346.63 -21.37,0 0,-61.76 q 0,-11.5 -4.35,-17.16 -4.35,-5.66 -13.58,-5.66 -12.32,0 -18.07,8 -5.75,8 -5.75,26.67 l 0,49.9 -21.28,0 0,-100.17 16.66,0 3,13.13 1.09,0 a 27.75,27.75 0 0 1 12.09,-11 39,39 0 0 1 17.43,-3.89 q 23.09,0 30.61,15.76 l 1.45,0 a 30.53,30.53 0 0 1 12.5,-11.59 39.68,39.68 0 0 1 18.47,-4.17 q 17.93,0 26.13,9.06 8.2,9.06 8.2,27.62 l 0,65.29 -21.28,0 0,-61.79 q 0,-11.5 -4.39,-17.16 -4.39,-5.66 -13.63,-5.66 -12.41,0 -18.16,7.74 -5.75,7.74 -5.75,23.77 l 0,53.06 z" />
  <path
     id="path3367"
     d="m 1064.29,219.94 q 0,-5.7 3.12,-8.78 3.12,-3.08 8.92,-3.08 5.61,0 8.74,3.08 3.13,3.08 3.12,8.78 0,5.43 -3.12,8.56 -3.12,3.13 -8.74,3.12 -5.8,0 -8.92,-3.12 -3.12,-3.12 -3.12,-8.56 z m 22.55,126.69 -21.28,0 0,-100.18 21.28,0 0,100.18 z" />
  <path
     id="path3369"
     d="m 1151.04,348.45 q -18.75,0 -29.25,-13.58 -10.5,-13.58 -10.5,-38.12 0,-24.63 10.64,-38.35 10.64,-13.72 29.47,-13.74 19.74,0 30.06,14.58 l 1.09,0 a 127.39,127.39 0 0 1 -1.54,-17 l 0,-36.52 21.39,0 0,140.9 -16.66,0 -3.73,-13.17 -1,0 q -10.23,15 -29.97,15 z m 5.7,-17.21 q 13.13,0 19.11,-7.38 5.98,-7.38 6.16,-24 l 0,-3 q 0,-18.93 -6.16,-26.89 -6.16,-7.96 -19.29,-8 -11.23,0 -17.3,9.1 -6.07,9.1 -6.07,25.94 0,16.66 5.89,25.4 5.89,8.74 17.67,8.82 z" />
  <path
     id="path3371"
     d="m 1266.59,348.45 q -18.75,0 -29.25,-13.58 -10.5,-13.58 -10.5,-38.12 0,-24.63 10.64,-38.35 10.64,-13.72 29.47,-13.72 19.74,0 30.06,14.58 l 1.09,0 a 127.39,127.39 0 0 1 -1.54,-17 l 0,-36.54 21.37,0 0,140.9 -16.66,0 -3.71,-13.17 -1,0 q -10.23,15 -29.97,15 z m 5.7,-17.21 q 13.13,0 19.11,-7.38 5.98,-7.38 6.16,-24 l 0,-3 q 0,-18.93 -6.16,-26.89 -6.16,-7.96 -19.29,-8 -11.23,0 -17.3,9.1 -6.07,9.1 -6.07,25.94 0,16.66 5.89,25.4 5.89,8.74 17.66,8.82 z" />
  <path
     id="path3373"
     d="m 1392.1,348.45 q -23.36,0 -36.54,-13.63 -13.18,-13.63 -13.16,-37.54 0,-24.54 12.22,-38.58 12.22,-14.04 33.6,-14 19.83,0 31.33,12 11.5,12 11.5,33.14 l 0,11.5 -66.75,0 q 0.45,14.58 7.88,22.41 7.43,7.83 20.92,7.83 a 77.2,77.2 0 0 0 16.53,-1.67 86.51,86.51 0 0 0 16.44,-5.57 l 0,17.3 a 65.26,65.26 0 0 1 -15.76,5.25 96.62,96.62 0 0 1 -18.21,1.56 z m -3.89,-87.66 q -10.14,0 -16.25,6.43 -6.11,6.43 -7.29,18.75 l 45.46,0 q -0.18,-12.41 -6,-18.79 -5.82,-6.38 -15.93,-6.4 z" />
  <path
     id="path3375"
     d="m 1476.49,346.63 -21.28,0 0,-140.91 21.28,0 0,140.9 z" />
  <path
     id="path3377"
     d="m 1529.74,346.63 -38,-100.15 22.46,0 20.38,58.23 q 5.25,14.67 6.34,23.73 l 0.72,0 q 0.81,-6.52 6.34,-23.73 l 20.34,-58.26 22.64,0 -38.21,100.15 -23,0 z" />
  <path
     id="path3379"
     d="m 1649.91,348.45 q -23.36,0 -36.54,-13.63 -13.18,-13.63 -13.18,-37.53 0,-24.54 12.22,-38.58 12.22,-14.04 33.6,-14 19.83,0 31.33,12 11.5,12 11.5,33.14 l 0,11.5 -66.74,0 q 0.45,14.58 7.88,22.41 7.43,7.83 20.92,7.83 a 77.2,77.2 0 0 0 16.53,-1.67 86.51,86.51 0 0 0 16.44,-5.57 l 0,17.3 a 65.26,65.26 0 0 1 -15.76,5.25 96.62,96.62 0 0 1 -18.2,1.55 z m -3.89,-87.66 q -10.14,0 -16.25,6.43 -6.11,6.43 -7.29,18.75 l 45.46,0 q -0.18,-12.41 -6,-18.79 -5.82,-6.38 -15.93,-6.4 z" />
  <path
     id="path3381"
     d="m 1763.82,244.66 a 51.31,51.31 0 0 1 10.59,0.91 l -2.08,19.83 a 40.27,40.27 0 0 0 -9.42,-1.09 q -12.77,0 -20.69,8.33 -7.92,8.33 -7.92,21.64 l 0,52.34 -21.28,0 0,-100.17 16.66,0 2.81,17.66 1.09,0 a 39.68,39.68 0 0 1 13,-14.22 30.9,30.9 0 0 1 17.24,-5.23 z" />
  <path
     id="path3383"
     d="m 1813.54,293.74 12,-15 30.29,-32.29 24.57,0 -40.3,43 42.83,57.14 -25,0 -32.15,-43.92 -11.68,9.6 0,34.32 -21.1,0 0,-140.87 21.1,0 0,68.73 -1.09,19.29 0.54,0 z" />
  <path
     style="fill:#007d91"
     id="path3385"
     d="m 238.87,275.64 a 48.56,48.56 0 1 1 -48.55,-48.55 48.56,48.56 0 0 1 48.55,48.55"
     class="cls-1" />
  <path
     style="fill:#007d91"
     id="path3387"
     d="M 150.52,0.04 C 64.52,18.35 0,94.77 0,186.2 c 0,105.09 85.2,190.25 190.29,190.25 105.09,0 190.29,-85.2 190.29,-190.29 0,-91.62 -64.75,-168.05 -151,-186.16 l 0,116.73 a 120.85,120.85 0 1 1 -79.08,0 l 0,-116.69 z"
     class="cls-1" />
</svg>
